{
    "asset" : {
        "generator" : "Khronos glTF Blender I/O v3.4.50",
        "version" : "2.0"
    },
    "scene" : 0,
    "scenes" : [
        {
            "name" : "Scene",
            "nodes" : [
                0,
                1
            ]
        }
    ],
    "nodes" : [
        {
            "name" : "Jaguar",
            "scale" : [
                1.2293050289154053,
                1.2293050289154053,
                1.2293050289154053
            ],
            "translation" : [
                0,
                2.0966897010803223,
                -0.6334624290466309
            ]
        },
        {
            "mesh" : 0,
            "name" : "Jaguar.001",
            "scale" : [
                1.2293050289154053,
                1.2293050289154053,
                1.2293050289154053
            ],
            "translation" : [
                0,
                2.0966897010803223,
                -0.6334624290466309
            ]
        }
    ],
    "animations" : [
        {
            "channels" : [
                {
                    "sampler" : 0,
                    "target" : {
                        "node" : 0,
                        "path" : "scale"
                    }
                }
            ],
            "name" : "JaguarAction",
            "samplers" : [
                {
                    "input" : 20,
                    "interpolation" : "STEP",
                    "output" : 21
                }
            ]
        },
        {
            "channels" : [
                {
                    "sampler" : 0,
                    "target" : {
                        "node" : 1,
                        "path" : "scale"
                    }
                }
            ],
            "name" : "JaguarAction.001",
            "samplers" : [
                {
                    "input" : 20,
                    "interpolation" : "STEP",
                    "output" : 22
                }
            ]
        }
    ],
    "materials" : [
        {
            "alphaMode" : "BLEND",
            "doubleSided" : true,
            "name" : "M_Shirt",
            "pbrMetallicRoughness" : {
                "baseColorTexture" : {
                    "index" : 0
                },
                "metallicFactor" : 0,
                "roughnessFactor" : 0.5
            }
        },
        {
            "alphaMode" : "BLEND",
            "doubleSided" : true,
            "name" : "M_Skin",
            "pbrMetallicRoughness" : {
                "baseColorTexture" : {
                    "index" : 1
                },
                "metallicFactor" : 0,
                "roughnessFactor" : 0.5
            }
        },
        {
            "doubleSided" : true,
            "name" : "MAT_Vidrio",
            "pbrMetallicRoughness" : {
                "baseColorFactor" : [
                    0.15107712149620056,
                    0.16264186799526215,
                    0.1483897715806961,
                    1
                ],
                "metallicFactor" : 0,
                "roughnessFactor" : 0.5
            }
        },
        {
            "alphaMode" : "BLEND",
            "doubleSided" : true,
            "name" : "MAT_Nave",
            "pbrMetallicRoughness" : {
                "baseColorTexture" : {
                    "index" : 2
                },
                "metallicFactor" : 0,
                "roughnessFactor" : 0.5
            }
        }
    ],
    "meshes" : [
        {
            "name" : "model.001",
            "primitives" : [
                {
                    "attributes" : {
                        "COLOR_0" : 0,
                        "POSITION" : 1,
                        "TEXCOORD_0" : 2,
                        "NORMAL" : 3
                    },
                    "indices" : 4,
                    "material" : 0
                },
                {
                    "attributes" : {
                        "COLOR_0" : 5,
                        "POSITION" : 6,
                        "TEXCOORD_0" : 7,
                        "NORMAL" : 8
                    },
                    "indices" : 9,
                    "material" : 1
                },
                {
                    "attributes" : {
                        "COLOR_0" : 10,
                        "POSITION" : 11,
                        "TEXCOORD_0" : 12,
                        "NORMAL" : 13
                    },
                    "indices" : 14,
                    "material" : 2
                },
                {
                    "attributes" : {
                        "COLOR_0" : 15,
                        "POSITION" : 16,
                        "TEXCOORD_0" : 17,
                        "NORMAL" : 18
                    },
                    "indices" : 19,
                    "material" : 3
                }
            ]
        }
    ],
    "textures" : [
        {
            "sampler" : 0,
            "source" : 0
        },
        {
            "sampler" : 0,
            "source" : 1
        },
        {
            "sampler" : 0,
            "source" : 2
        }
    ],
    "images" : [
        {
            "bufferView" : 5,
            "mimeType" : "image/png",
            "name" : "Untitled-2"
        },
        {
            "bufferView" : 11,
            "mimeType" : "image/png",
            "name" : "T_SkinEyes"
        },
        {
            "bufferView" : 22,
            "mimeType" : "image/png",
            "name" : "Logo_Base_Color"
        }
    ],
    "accessors" : [
        {
            "bufferView" : 0,
            "componentType" : 5123,
            "count" : 1393,
            "normalized" : true,
            "type" : "VEC4"
        },
        {
            "bufferView" : 1,
            "componentType" : 5126,
            "count" : 1393,
            "max" : [
                0.29511192440986633,
                0.7101926207542419,
                0.4163753390312195
            ],
            "min" : [
                -0.2775842249393463,
                -0.3508144021034241,
                -0.06370264291763306
            ],
            "type" : "VEC3"
        },
        {
            "bufferView" : 2,
            "componentType" : 5126,
            "count" : 1393,
            "type" : "VEC2"
        },
        {
            "bufferView" : 3,
            "componentType" : 5126,
            "count" : 1393,
            "type" : "VEC3"
        },
        {
            "bufferView" : 4,
            "componentType" : 5123,
            "count" : 6756,
            "type" : "SCALAR"
        },
        {
            "bufferView" : 6,
            "componentType" : 5123,
            "count" : 3789,
            "normalized" : true,
            "type" : "VEC4"
        },
        {
            "bufferView" : 7,
            "componentType" : 5126,
            "count" : 3789,
            "max" : [
                0.3953635096549988,
                1.005994439125061,
                0.3736379146575928
            ],
            "min" : [
                -0.40215569734573364,
                -0.3374112844467163,
                -0.32622480392456055
            ],
            "type" : "VEC3"
        },
        {
            "bufferView" : 8,
            "componentType" : 5126,
            "count" : 3789,
            "type" : "VEC2"
        },
        {
            "bufferView" : 9,
            "componentType" : 5126,
            "count" : 3789,
            "type" : "VEC3"
        },
        {
            "bufferView" : 10,
            "componentType" : 5123,
            "count" : 20997,
            "type" : "SCALAR"
        },
        {
            "bufferView" : 12,
            "componentType" : 5123,
            "count" : 225,
            "normalized" : true,
            "type" : "VEC4"
        },
        {
            "bufferView" : 13,
            "componentType" : 5126,
            "count" : 225,
            "max" : [
                0.47574254870414734,
                1.0924612283706665,
                0.6450526714324951
            ],
            "min" : [
                -0.4757426083087921,
                0.5347696542739868,
                -0.5628935694694519
            ],
            "type" : "VEC3"
        },
        {
            "bufferView" : 14,
            "componentType" : 5126,
            "count" : 225,
            "type" : "VEC2"
        },
        {
            "bufferView" : 15,
            "componentType" : 5126,
            "count" : 225,
            "type" : "VEC3"
        },
        {
            "bufferView" : 16,
            "componentType" : 5123,
            "count" : 1248,
            "type" : "SCALAR"
        },
        {
            "bufferView" : 17,
            "componentType" : 5123,
            "count" : 3483,
            "normalized" : true,
            "type" : "VEC4"
        },
        {
            "bufferView" : 18,
            "componentType" : 5126,
            "count" : 3483,
            "max" : [
                0.8342680335044861,
                0.7122294306755066,
                2.3732059001922607
            ],
            "min" : [
                -0.8342680335044861,
                -0.6771091818809509,
                -1.3792788982391357
            ],
            "type" : "VEC3"
        },
        {
            "bufferView" : 19,
            "componentType" : 5126,
            "count" : 3483,
            "type" : "VEC2"
        },
        {
            "bufferView" : 20,
            "componentType" : 5126,
            "count" : 3483,
            "type" : "VEC3"
        },
        {
            "bufferView" : 21,
            "componentType" : 5123,
            "count" : 12312,
            "type" : "SCALAR"
        },
        {
            "bufferView" : 23,
            "componentType" : 5126,
            "count" : 1,
            "max" : [
                0.041666666666666664
            ],
            "min" : [
                0.041666666666666664
            ],
            "type" : "SCALAR"
        },
        {
            "bufferView" : 24,
            "componentType" : 5126,
            "count" : 1,
            "type" : "VEC3"
        },
        {
            "bufferView" : 25,
            "componentType" : 5126,
            "count" : 1,
            "type" : "VEC3"
        }
    ],
    "bufferViews" : [
        {
            "buffer" : 0,
            "byteLength" : 11144,
            "byteOffset" : 0,
            "target" : 34962
        },
        {
            "buffer" : 0,
            "byteLength" : 16716,
            "byteOffset" : 11144,
            "target" : 34962
        },
        {
            "buffer" : 0,
            "byteLength" : 11144,
            "byteOffset" : 27860,
            "target" : 34962
        },
        {
            "buffer" : 0,
            "byteLength" : 16716,
            "byteOffset" : 39004,
            "target" : 34962
        },
        {
            "buffer" : 0,
            "byteLength" : 13512,
            "byteOffset" : 55720,
            "target" : 34963
        },
        {
            "buffer" : 0,
            "byteLength" : 39783,
            "byteOffset" : 69232
        },
        {
            "buffer" : 0,
            "byteLength" : 30312,
            "byteOffset" : 109016,
            "target" : 34962
        },
        {
            "buffer" : 0,
            "byteLength" : 45468,
            "byteOffset" : 139328,
            "target" : 34962
        },
        {
            "buffer" : 0,
            "byteLength" : 30312,
            "byteOffset" : 184796,
            "target" : 34962
        },
        {
            "buffer" : 0,
            "byteLength" : 45468,
            "byteOffset" : 215108,
            "target" : 34962
        },
        {
            "buffer" : 0,
            "byteLength" : 41994,
            "byteOffset" : 260576,
            "target" : 34963
        },
        {
            "buffer" : 0,
            "byteLength" : 249625,
            "byteOffset" : 302572
        },
        {
            "buffer" : 0,
            "byteLength" : 1800,
            "byteOffset" : 552200,
            "target" : 34962
        },
        {
            "buffer" : 0,
            "byteLength" : 2700,
            "byteOffset" : 554000,
            "target" : 34962
        },
        {
            "buffer" : 0,
            "byteLength" : 1800,
            "byteOffset" : 556700,
            "target" : 34962
        },
        {
            "buffer" : 0,
            "byteLength" : 2700,
            "byteOffset" : 558500,
            "target" : 34962
        },
        {
            "buffer" : 0,
            "byteLength" : 2496,
            "byteOffset" : 561200,
            "target" : 34963
        },
        {
            "buffer" : 0,
            "byteLength" : 27864,
            "byteOffset" : 563696,
            "target" : 34962
        },
        {
            "buffer" : 0,
            "byteLength" : 41796,
            "byteOffset" : 591560,
            "target" : 34962
        },
        {
            "buffer" : 0,
            "byteLength" : 27864,
            "byteOffset" : 633356,
            "target" : 34962
        },
        {
            "buffer" : 0,
            "byteLength" : 41796,
            "byteOffset" : 661220,
            "target" : 34962
        },
        {
            "buffer" : 0,
            "byteLength" : 24624,
            "byteOffset" : 703016,
            "target" : 34963
        },
        {
            "buffer" : 0,
            "byteLength" : 294243,
            "byteOffset" : 727640
        },
        {
            "buffer" : 0,
            "byteLength" : 4,
            "byteOffset" : 1021884
        },
        {
            "buffer" : 0,
            "byteLength" : 12,
            "byteOffset" : 1021888
        },
        {
            "buffer" : 0,
            "byteLength" : 12,
            "byteOffset" : 1021900
        }
    ],
    "samplers" : [
        {
            "magFilter" : 9729,
            "minFilter" : 9987
        }
    ],
    "buffers" : [
        {
            "byteLength" : 1021912,
            "uri" : "data:application/octet-stream;base64,"
        }
    ]
}
