{
    "asset" : {
        "generator" : "Khronos glTF Blender I/O v3.4.50",
        "version" : "2.0"
    },
    "scene" : 0,
    "scenes" : [
        {
            "name" : "Scene",
            "nodes" : [
                0,
                1,
                2
            ]
        }
    ],
    "nodes" : [
        {
            "mesh" : 0,
            "name" : "Vidrio",
            "scale" : [
                8.230409622192383,
                8.230409622192383,
                8.230409622192383
            ],
            "translation" : [
                0,
                0.0161559097468853,
                1.526731014251709
            ]
        },
        {
            "mesh" : 1,
            "name" : "Nave",
            "scale" : [
                8.230409622192383,
                8.230409622192383,
                8.230409622192383
            ],
            "translation" : [
                0,
                0.0161559097468853,
                1.526731014251709
            ]
        },
        {
            "mesh" : 2,
            "name" : "Jaguar",
            "scale" : [
                10.117683410644531,
                10.117683410644531,
                10.117683410644531
            ],
            "translation" : [
                0,
                -0.039015136659145355,
                -3.686924457550049
            ]
        }
    ],
    "materials" : [
        {
            "doubleSided" : true,
            "name" : "MAT_Vidrio",
            "pbrMetallicRoughness" : {
                "baseColorFactor" : [
                    0.08117584139108658,
                    0.08117584139108658,
                    0.08117584139108658,
                    1
                ],
                "metallicFactor" : 0,
                "roughnessFactor" : 0.5
            }
        },
        {
            "alphaMode" : "BLEND",
            "doubleSided" : true,
            "name" : "MAT_Nave",
            "pbrMetallicRoughness" : {
                "baseColorTexture" : {
                    "index" : 0
                },
                "metallicFactor" : 0,
                "roughnessFactor" : 0.5
            }
        },
        {
            "alphaMode" : "BLEND",
            "doubleSided" : true,
            "name" : "M_Shirt",
            "pbrMetallicRoughness" : {
                "baseColorTexture" : {
                    "index" : 1
                },
                "metallicFactor" : 0,
                "roughnessFactor" : 0.5
            }
        },
        {
            "alphaMode" : "BLEND",
            "doubleSided" : true,
            "name" : "M_Skin",
            "pbrMetallicRoughness" : {
                "baseColorTexture" : {
                    "index" : 2
                },
                "metallicFactor" : 0,
                "roughnessFactor" : 0.5
            }
        }
    ],
    "meshes" : [
        {
            "name" : "Mesh",
            "primitives" : [
                {
                    "attributes" : {
                        "POSITION" : 0,
                        "TEXCOORD_0" : 1,
                        "NORMAL" : 2
                    },
                    "indices" : 3,
                    "material" : 0
                }
            ]
        },
        {
            "name" : "Circle.005",
            "primitives" : [
                {
                    "attributes" : {
                        "POSITION" : 4,
                        "TEXCOORD_0" : 5,
                        "NORMAL" : 6
                    },
                    "indices" : 7,
                    "material" : 1
                }
            ]
        },
        {
            "name" : "model",
            "primitives" : [
                {
                    "attributes" : {
                        "COLOR_0" : 8,
                        "POSITION" : 9,
                        "TEXCOORD_0" : 10,
                        "NORMAL" : 11
                    },
                    "indices" : 12,
                    "material" : 2
                },
                {
                    "attributes" : {
                        "COLOR_0" : 13,
                        "POSITION" : 14,
                        "TEXCOORD_0" : 15,
                        "NORMAL" : 16
                    },
                    "indices" : 17,
                    "material" : 3
                }
            ]
        }
    ],
    "textures" : [
        {
            "sampler" : 0,
            "source" : 0
        },
        {
            "sampler" : 0,
            "source" : 1
        },
        {
            "sampler" : 0,
            "source" : 2
        }
    ],
    "images" : [
        {
            "bufferView" : 8,
            "mimeType" : "image/png",
            "name" : "Logo_Base_Color"
        },
        {
            "bufferView" : 14,
            "mimeType" : "image/png",
            "name" : "Untitled-2"
        },
        {
            "bufferView" : 20,
            "mimeType" : "image/png",
            "name" : "T_SkinEyes"
        }
    ],
    "accessors" : [
        {
            "bufferView" : 0,
            "componentType" : 5126,
            "count" : 225,
            "max" : [
                0.5848327279090881,
                1.336264729499817,
                0.1595040112733841
            ],
            "min" : [
                -0.5848327279090881,
                0.6506917476654053,
                -1.3254302740097046
            ],
            "type" : "VEC3"
        },
        {
            "bufferView" : 1,
            "componentType" : 5126,
            "count" : 225,
            "type" : "VEC2"
        },
        {
            "bufferView" : 2,
            "componentType" : 5126,
            "count" : 225,
            "type" : "VEC3"
        },
        {
            "bufferView" : 3,
            "componentType" : 5123,
            "count" : 1248,
            "type" : "SCALAR"
        },
        {
            "bufferView" : 4,
            "componentType" : 5126,
            "count" : 3714,
            "max" : [
                1.0255697965621948,
                0.8688439130783081,
                2.283931255340576
            ],
            "min" : [
                -1.0255697965621948,
                -0.8390769362449646,
                -2.329016923904419
            ],
            "type" : "VEC3"
        },
        {
            "bufferView" : 5,
            "componentType" : 5126,
            "count" : 3714,
            "type" : "VEC2"
        },
        {
            "bufferView" : 6,
            "componentType" : 5126,
            "count" : 3714,
            "type" : "VEC3"
        },
        {
            "bufferView" : 7,
            "componentType" : 5123,
            "count" : 12312,
            "type" : "SCALAR"
        },
        {
            "bufferView" : 9,
            "componentType" : 5123,
            "count" : 1393,
            "normalized" : true,
            "type" : "VEC4"
        },
        {
            "bufferView" : 10,
            "componentType" : 5126,
            "count" : 1393,
            "max" : [
                0.29511192440986633,
                0.7101926207542419,
                0.4163753390312195
            ],
            "min" : [
                -0.2775842249393463,
                -0.3508144021034241,
                -0.06370264291763306
            ],
            "type" : "VEC3"
        },
        {
            "bufferView" : 11,
            "componentType" : 5126,
            "count" : 1393,
            "type" : "VEC2"
        },
        {
            "bufferView" : 12,
            "componentType" : 5126,
            "count" : 1393,
            "type" : "VEC3"
        },
        {
            "bufferView" : 13,
            "componentType" : 5123,
            "count" : 6756,
            "type" : "SCALAR"
        },
        {
            "bufferView" : 15,
            "componentType" : 5123,
            "count" : 3789,
            "normalized" : true,
            "type" : "VEC4"
        },
        {
            "bufferView" : 16,
            "componentType" : 5126,
            "count" : 3789,
            "max" : [
                0.3953635096549988,
                1.005994439125061,
                0.3736379146575928
            ],
            "min" : [
                -0.40215569734573364,
                -0.3374112844467163,
                -0.32622480392456055
            ],
            "type" : "VEC3"
        },
        {
            "bufferView" : 17,
            "componentType" : 5126,
            "count" : 3789,
            "type" : "VEC2"
        },
        {
            "bufferView" : 18,
            "componentType" : 5126,
            "count" : 3789,
            "type" : "VEC3"
        },
        {
            "bufferView" : 19,
            "componentType" : 5123,
            "count" : 20997,
            "type" : "SCALAR"
        }
    ],
    "bufferViews" : [
        {
            "buffer" : 0,
            "byteLength" : 2700,
            "byteOffset" : 0,
            "target" : 34962
        },
        {
            "buffer" : 0,
            "byteLength" : 1800,
            "byteOffset" : 2700,
            "target" : 34962
        },
        {
            "buffer" : 0,
            "byteLength" : 2700,
            "byteOffset" : 4500,
            "target" : 34962
        },
        {
            "buffer" : 0,
            "byteLength" : 2496,
            "byteOffset" : 7200,
            "target" : 34963
        },
        {
            "buffer" : 0,
            "byteLength" : 44568,
            "byteOffset" : 9696,
            "target" : 34962
        },
        {
            "buffer" : 0,
            "byteLength" : 29712,
            "byteOffset" : 54264,
            "target" : 34962
        },
        {
            "buffer" : 0,
            "byteLength" : 44568,
            "byteOffset" : 83976,
            "target" : 34962
        },
        {
            "buffer" : 0,
            "byteLength" : 24624,
            "byteOffset" : 128544,
            "target" : 34963
        },
        {
            "buffer" : 0,
            "byteLength" : 294243,
            "byteOffset" : 153168
        },
        {
            "buffer" : 0,
            "byteLength" : 11144,
            "byteOffset" : 447412,
            "target" : 34962
        },
        {
            "buffer" : 0,
            "byteLength" : 16716,
            "byteOffset" : 458556,
            "target" : 34962
        },
        {
            "buffer" : 0,
            "byteLength" : 11144,
            "byteOffset" : 475272,
            "target" : 34962
        },
        {
            "buffer" : 0,
            "byteLength" : 16716,
            "byteOffset" : 486416,
            "target" : 34962
        },
        {
            "buffer" : 0,
            "byteLength" : 13512,
            "byteOffset" : 503132,
            "target" : 34963
        },
        {
            "buffer" : 0,
            "byteLength" : 39783,
            "byteOffset" : 516644
        },
        {
            "buffer" : 0,
            "byteLength" : 30312,
            "byteOffset" : 556428,
            "target" : 34962
        },
        {
            "buffer" : 0,
            "byteLength" : 45468,
            "byteOffset" : 586740,
            "target" : 34962
        },
        {
            "buffer" : 0,
            "byteLength" : 30312,
            "byteOffset" : 632208,
            "target" : 34962
        },
        {
            "buffer" : 0,
            "byteLength" : 45468,
            "byteOffset" : 662520,
            "target" : 34962
        },
        {
            "buffer" : 0,
            "byteLength" : 41994,
            "byteOffset" : 707988,
            "target" : 34963
        },
        {
            "buffer" : 0,
            "byteLength" : 249625,
            "byteOffset" : 749984
        }
    ],
    "samplers" : [
        {
            "magFilter" : 9729,
            "minFilter" : 9987
        }
    ],
    "buffers" : [
        {
            "byteLength" : 999612,
            "uri" : "data:application/octet-stream;base64,"
        }
    ]
}
